<?xml version="1.0" encoding="UTF-8"?><svg id="Layer_1" xmlns="http://www.w3.org/2000/svg" viewBox="0 0 300 300"><defs><style>.cls-1{fill:#135594;}</style></defs><path class="cls-1" d="M44.55,255.12c14.08,14.04,32.55,22.02,52.31,22.89,14.05,12.78,32.66,20.65,53.13,20.65,19.89,0,38.61-7.36,53.19-20.66,19.75-.88,38.2-8.86,52.26-22.88,14.08-14.04,22.09-32.45,22.96-52.15,12.82-14,20.72-32.56,20.72-52.97,0-19.83-7.38-38.48-20.72-53.02-.88-19.68-8.89-38.08-22.96-52.1-14.08-14.04-32.55-22.02-52.32-22.89C189.09,9.21,170.47,1.34,150,1.34c-19.89,0-38.61,7.36-53.18,20.66-19.75,.88-38.2,8.86-52.26,22.88-14.08,14.04-22.09,32.45-22.96,52.15C8.77,111.03,.87,129.59,.87,150s7.38,38.48,20.72,53.02c.88,19.68,8.89,38.08,22.96,52.1Zm-26.05-105.12c0-29.46,21.01-54.12,48.88-59.88,.04,0,.09-.02,.13-.03,1.71-.35,3.47-.59,5.23-.8,.3-.03,.59-.1,.89-.13,2.04-.21,4.12-.31,6.22-.31,1.93,0,3.84,.11,5.72,.29,.59,.05,1.17,.14,1.75,.21,1.31,.16,2.61,.35,3.89,.59,.64,.12,1.27,.25,1.9,.39,1.28,.28,2.55,.61,3.8,.98,.53,.15,1.07,.29,1.59,.46,1.74,.55,3.45,1.17,5.11,1.87,.21,.09,.41,.2,.62,.29,1.45,.63,2.88,1.32,4.27,2.06,.53,.28,1.04,.58,1.56,.88,1.07,.61,2.13,1.25,3.16,1.92,.53,.34,1.05,.69,1.57,1.05,1.06,.74,2.1,1.52,3.11,2.32,.4,.32,.82,.62,1.21,.95,1.36,1.14,2.68,2.33,3.94,3.57,.25,.25,.49,.53,.74,.78,1,1.03,1.97,2.08,2.9,3.18,.39,.47,.77,.95,1.15,1.42,.76,.95,1.49,1.93,2.2,2.93,.36,.51,.72,1.01,1.06,1.53,.74,1.12,1.43,2.27,2.1,3.44,.23,.4,.48,.79,.7,1.2,.85,1.58,1.63,3.19,2.34,4.84,.17,.4,.31,.81,.47,1.2,.38,.95,.72,1.91,1.06,2.88-.01,0-.03-.01-.04-.02-2.6-1.39-5.28-2.61-8.01-3.7-.81-.32-1.64-.58-2.46-.88-1.98-.71-3.98-1.36-6.01-1.91-.99-.27-1.97-.51-2.97-.74-2.03-.47-4.07-.84-6.14-1.15-.92-.14-1.82-.3-2.75-.4-2.97-.33-5.97-.55-9-.55h0c-15.82,0-30.93,4.6-43.79,13.18-4.29,2.86-8.32,6.16-12.05,9.88-2.15,2.14-4.11,4.41-5.98,6.74-.58,.72-1.1,1.48-1.65,2.22-1.25,1.68-2.43,3.39-3.54,5.15-.54,.86-1.07,1.73-1.58,2.62-1.05,1.83-2,3.69-2.89,5.59-.37,.79-.78,1.56-1.12,2.37-1.15,2.69-2.18,5.42-3.03,8.22-.02,.06-.04,.11-.06,.17-4.06-8.26-6.2-17.4-6.2-26.87ZM57.01,57.3c11.96-11.92,27.67-17.88,43.38-17.88,11.73,0,23.45,3.33,33.61,9.97,.05,.04,.11,.06,.16,.1,1.43,.94,2.82,1.99,4.18,3.06,.26,.21,.55,.38,.81,.6,1.59,1.29,3.13,2.68,4.61,4.16,1.32,1.32,2.56,2.7,3.75,4.12,.43,.51,.82,1.04,1.22,1.55,.71,.91,1.41,1.83,2.07,2.77,.47,.68,.92,1.36,1.36,2.05,.51,.8,.99,1.62,1.47,2.44,.46,.8,.92,1.59,1.34,2.41,.35,.69,.66,1.39,.99,2.09,.96,2.07,1.82,4.17,2.54,6.31,.09,.27,.2,.53,.29,.81,.35,1.09,.64,2.2,.92,3.31,.15,.6,.31,1.19,.45,1.79,.24,1.07,.45,2.14,.64,3.21,.12,.69,.21,1.38,.31,2.07,.14,1.04,.29,2.07,.37,3.12,.08,.91,.1,1.83,.13,2.75,.06,1.6,.07,3.2,0,4.8-.03,.84-.06,1.67-.12,2.51-.08,1.02-.2,2.04-.33,3.05-.09,.71-.2,1.41-.31,2.12-.18,1.07-.36,2.13-.59,3.19-.12,.56-.28,1.1-.41,1.65-.56,2.23-1.24,4.43-2.05,6.6-.14,.38-.26,.78-.41,1.16-.38,.95-.82,1.88-1.24,2.81-.21,.46-.43,.92-.65,1.38-.04-.13-.09-.25-.13-.38-.19-.61-.42-1.2-.62-1.8-.55-1.65-1.14-3.29-1.8-4.89-.32-.79-.68-1.56-1.02-2.33-.63-1.4-1.3-2.79-2.01-4.15-.4-.77-.8-1.53-1.23-2.28-.79-1.39-1.63-2.75-2.5-4.09-.41-.63-.79-1.27-1.22-1.89-1.31-1.91-2.69-3.76-4.16-5.54-.13-.16-.27-.3-.4-.45-1.37-1.63-2.8-3.19-4.29-4.7-.55-.55-1.12-1.07-1.68-1.61-1.13-1.08-2.28-2.14-3.48-3.15-.66-.56-1.33-1.1-2.01-1.64-1.2-.95-2.42-1.86-3.67-2.74-.68-.48-1.35-.96-2.05-1.42-1.48-.97-3-1.88-4.54-2.75-.5-.28-.98-.59-1.48-.86-2.06-1.11-4.17-2.12-6.33-3.04-.55-.24-1.12-.43-1.68-.65-1.64-.66-3.31-1.28-5-1.83-.8-.26-1.61-.48-2.42-.72-1.52-.44-3.06-.84-4.62-1.19-.85-.19-1.71-.38-2.57-.54-1.64-.31-3.3-.55-4.97-.76-.77-.1-1.54-.22-2.32-.29-2.45-.23-4.92-.38-7.43-.38-3.05,0-6.05,.21-9.02,.55-1.06,.12-2.1,.32-3.15,.48-1.87,.29-3.72,.62-5.54,1.04-1.27,.29-2.52,.62-3.77,.97-1.55,.44-3.06,.93-4.57,1.46-1.33,.46-2.66,.91-3.96,1.45-1.42,.59-2.8,1.26-4.18,1.93-1.1,.53-2.24,.95-3.31,1.53,2.99-8.7,7.96-16.67,14.67-23.37ZM150,18.91c29.58,0,54.34,20.98,60.09,48.8,0,.01,0,.03,.01,.04,.36,1.73,.6,3.49,.81,5.27,.03,.28,.1,.55,.12,.83,.21,2.04,.32,4.11,.32,6.2,0,1.93-.11,3.82-.29,5.71-.05,.58-.14,1.16-.21,1.73-.16,1.31-.36,2.61-.6,3.9-.12,.63-.24,1.25-.38,1.87-.29,1.3-.62,2.58-.99,3.84-.15,.51-.28,1.03-.44,1.53-.56,1.74-1.18,3.46-1.89,5.13-.07,.16-.15,.32-.23,.48-.65,1.5-1.37,2.97-2.14,4.41-.26,.5-.55,.98-.83,1.46-.63,1.11-1.29,2.2-1.99,3.26-.32,.5-.65,.99-.99,1.48-.77,1.11-1.59,2.18-2.43,3.24-.29,.36-.56,.73-.85,1.08-1.16,1.38-2.37,2.71-3.64,3.99-.2,.2-.42,.38-.62,.58-1.08,1.06-2.2,2.07-3.36,3.05-.43,.36-.87,.71-1.32,1.06-1,.79-2.02,1.56-3.07,2.29-.48,.33-.95,.66-1.43,.98-1.17,.77-2.38,1.5-3.61,2.19-.36,.2-.7,.42-1.06,.61-1.6,.86-3.24,1.65-4.92,2.37-.35,.15-.71,.27-1.06,.41-.99,.4-2,.75-3.01,1.1,0-.02,.01-.03,.02-.05,1.4-2.59,2.61-5.26,3.7-7.98,.32-.79,.57-1.61,.87-2.41,.72-1.99,1.38-4,1.94-6.05,.26-.96,.5-1.93,.73-2.9,.48-2.05,.86-4.12,1.17-6.22,.13-.89,.29-1.76,.39-2.65,.34-2.97,.56-5.97,.56-9,0-18.4-6.29-35.84-17.86-49.87-1.65-2-3.41-3.94-5.28-5.8-2.15-2.14-4.43-4.11-6.77-5.97-.71-.57-1.45-1.08-2.18-1.61-1.71-1.26-3.45-2.46-5.24-3.57-.84-.53-1.69-1.04-2.55-1.53-1.87-1.07-3.78-2.04-5.73-2.94-.76-.35-1.49-.74-2.26-1.07-2.71-1.16-5.48-2.19-8.32-3.04-.05-.01-.09-.04-.13-.05,8.28-4.04,17.45-6.18,26.95-6.18Zm101.02,114.99c-.07,.11-.13,.22-.2,.32-.92,1.39-1.95,2.73-2.99,4.06-.23,.3-.43,.61-.67,.9-1.3,1.58-2.68,3.12-4.17,4.6-1.32,1.32-2.71,2.55-4.13,3.74-.51,.42-1.03,.81-1.55,1.21-.92,.72-1.85,1.42-2.81,2.08-.67,.46-1.34,.9-2.02,1.34-.82,.52-1.65,1.01-2.5,1.49-.79,.45-1.57,.9-2.37,1.31-.73,.37-1.47,.7-2.21,1.04-1.91,.88-3.86,1.67-5.83,2.34-.42,.14-.82,.31-1.24,.44-1.05,.33-2.12,.61-3.18,.88-.65,.17-1.3,.34-1.96,.49-1.03,.23-2.06,.43-3.09,.61-.76,.13-1.52,.23-2.28,.34-.98,.13-1.96,.27-2.94,.35-1.16,.1-2.34,.14-3.52,.17-1.3,.04-2.6,.03-3.9-.02-.93-.03-1.86-.06-2.78-.14-.98-.08-1.95-.19-2.92-.32-.76-.1-1.53-.21-2.28-.34-1.03-.17-2.06-.35-3.08-.57-.62-.13-1.23-.3-1.84-.46-2.14-.54-4.26-1.19-6.35-1.96-.43-.16-.87-.29-1.3-.46-.95-.38-1.89-.82-2.83-1.24-.46-.21-.92-.43-1.37-.65,.13-.04,.26-.09,.39-.13,.59-.18,1.16-.41,1.75-.6,1.68-.56,3.35-1.15,4.98-1.82,.76-.31,1.51-.65,2.26-.99,1.44-.64,2.86-1.32,4.26-2.05,.74-.38,1.48-.77,2.2-1.18,1.44-.81,2.84-1.67,4.23-2.56,.59-.38,1.2-.74,1.78-1.14,1.93-1.32,3.81-2.71,5.62-4.19,.07-.06,.13-.12,.2-.18,1.73-1.43,3.38-2.94,4.97-4.51,.52-.51,1.01-1.05,1.51-1.57,1.12-1.16,2.22-2.35,3.27-3.58,.54-.63,1.06-1.27,1.57-1.91,.98-1.23,1.92-2.48,2.83-3.77,.46-.65,.93-1.29,1.37-1.96,1-1.51,1.94-3.07,2.83-4.65,.26-.46,.55-.9,.8-1.37,1.11-2.06,2.14-4.17,3.07-6.34,.23-.53,.41-1.08,.63-1.61,.67-1.66,1.3-3.33,1.86-5.05,.26-.79,.48-1.59,.71-2.39,.44-1.52,.84-3.06,1.19-4.62,.19-.85,.38-1.7,.54-2.56,.31-1.64,.55-3.29,.76-4.96,.1-.77,.22-1.53,.29-2.31,.23-2.44,.38-4.91,.38-7.41,0-3.04-.22-6.03-.55-8.99-.12-1.06-.32-2.1-.48-3.15-.29-1.86-.62-3.7-1.03-5.51-.29-1.27-.62-2.53-.98-3.78-.44-1.53-.92-3.03-1.45-4.52-.47-1.34-.93-2.68-1.47-3.99-.57-1.38-1.23-2.7-1.88-4.04-.54-1.13-.99-2.31-1.58-3.41,8.73,2.98,16.73,7.93,23.44,14.63,20.84,20.78,23.51,52.9,8.03,76.6Zm30.49,16.1c0,29.42-20.96,54.05-48.77,59.85-.08,.02-.16,.04-.24,.06-1.69,.35-3.42,.58-5.16,.79-.32,.04-.63,.11-.95,.14-2.04,.21-4.12,.31-6.21,.31-1.93,0-3.84-.11-5.72-.29-.59-.05-1.17-.14-1.75-.21-1.31-.16-2.61-.35-3.89-.59-.64-.12-1.27-.25-1.9-.39-1.29-.28-2.55-.61-3.81-.98-.53-.15-1.07-.29-1.59-.46-1.74-.55-3.45-1.17-5.11-1.87-.21-.09-.41-.2-.63-.29-1.45-.63-2.88-1.32-4.27-2.05-.53-.28-1.05-.59-1.58-.89-1.07-.61-2.12-1.24-3.14-1.91-.53-.35-1.06-.7-1.59-1.06-1.06-.73-2.08-1.51-3.09-2.3-.41-.32-.83-.63-1.23-.96-1.36-1.13-2.68-2.32-3.93-3.56-.27-.27-.51-.55-.78-.83-.98-1.01-1.94-2.05-2.85-3.13-.4-.48-.79-.97-1.17-1.45-.75-.94-1.47-1.9-2.17-2.89-.37-.52-.73-1.04-1.08-1.57-.73-1.11-1.41-2.24-2.07-3.39-.24-.42-.5-.82-.72-1.24-.85-1.57-1.63-3.18-2.34-4.83-.17-.4-.31-.81-.48-1.22-.38-.94-.72-1.91-1.06-2.87,.01,0,.03,.01,.04,.02,2.6,1.39,5.27,2.61,8.01,3.69,.81,.32,1.64,.58,2.46,.88,1.98,.71,3.97,1.36,6,1.91,.99,.27,1.98,.51,2.98,.74,2.02,.46,4.06,.84,6.13,1.14,.92,.14,1.83,.3,2.76,.41,2.97,.33,5.97,.55,9,.55,21.1,0,40.93-8.19,55.84-23.06,2.15-2.14,4.12-4.41,5.98-6.75,.57-.72,1.09-1.46,1.64-2.2,1.26-1.69,2.45-3.41,3.56-5.19,.53-.85,1.05-1.7,1.55-2.57,1.07-1.86,2.04-3.76,2.95-5.7,.35-.75,.74-1.49,1.07-2.25,1.17-2.71,2.2-5.47,3.05-8.3,.01-.04,.03-.09,.05-.13,4.06,8.27,6.21,17.41,6.21,26.87Zm-38.52,92.7c-20.87,20.81-53.17,23.44-76.95,7.94-.07-.04-.14-.08-.21-.12-1.43-.94-2.81-1.99-4.18-3.06-.26-.21-.55-.38-.81-.6-1.59-1.29-3.13-2.68-4.61-4.16-1.37-1.36-2.63-2.79-3.84-4.24-.37-.45-.72-.92-1.08-1.37-.82-1.04-1.6-2.1-2.34-3.18-.36-.53-.71-1.06-1.06-1.59-.71-1.12-1.38-2.26-2.02-3.41-.26-.47-.54-.93-.78-1.41-.84-1.63-1.62-3.28-2.3-4.95-.07-.16-.11-.33-.18-.49-.61-1.53-1.14-3.07-1.62-4.63-.17-.55-.31-1.1-.46-1.64-.34-1.22-.64-2.44-.9-3.67-.12-.59-.25-1.19-.35-1.78-.23-1.3-.42-2.61-.57-3.92-.05-.48-.13-.96-.17-1.44-.16-1.78-.25-3.57-.26-5.35,0-.3,.03-.6,.03-.89,.02-1.49,.09-2.99,.21-4.47,.05-.58,.12-1.15,.19-1.73,.14-1.24,.32-2.48,.54-3.71,.1-.59,.21-1.18,.33-1.77,.28-1.33,.61-2.66,.97-3.97,.12-.43,.22-.86,.34-1.29,.52-1.72,1.11-3.43,1.79-5.11,.15-.37,.33-.72,.48-1.09,.41-.97,.88-1.93,1.34-2.89,.04,.13,.09,.25,.13,.37,.18,.57,.4,1.12,.58,1.69,.56,1.69,1.17,3.37,1.84,5.01,.31,.76,.65,1.5,.99,2.25,.65,1.44,1.33,2.85,2.05,4.25,.39,.74,.78,1.48,1.19,2.2,.81,1.43,1.67,2.82,2.56,4.19,.39,.6,.76,1.21,1.16,1.8,1.32,1.92,2.71,3.79,4.19,5.58,.08,.09,.16,.17,.24,.26,1.41,1.69,2.91,3.32,4.46,4.89,.53,.54,1.09,1.04,1.64,1.57,1.15,1.1,2.31,2.16,3.52,3.19,.65,.55,1.32,1.09,1.99,1.62,1.21,.96,2.44,1.87,3.7,2.76,.67,.47,1.34,.95,2.02,1.4,1.49,.98,3.02,1.9,4.58,2.78,.49,.28,.95,.58,1.45,.84,2.06,1.11,4.17,2.12,6.33,3.05,.55,.24,1.12,.43,1.68,.65,1.64,.66,3.31,1.28,5,1.83,.8,.26,1.61,.48,2.42,.72,1.52,.44,3.06,.84,4.62,1.19,.85,.19,1.71,.38,2.57,.54,1.64,.31,3.3,.55,4.97,.76,.77,.1,1.54,.22,2.32,.29,2.45,.23,4.92,.38,7.43,.38,3.05,0,6.06-.22,9.02-.55,1.05-.12,2.08-.32,3.12-.48,1.88-.29,3.75-.62,5.58-1.04,1.26-.29,2.49-.61,3.73-.96,1.57-.44,3.12-.95,4.65-1.48,1.3-.45,2.59-.89,3.87-1.41,1.52-.63,2.99-1.35,4.46-2.06,1.01-.49,2.07-.88,3.06-1.41-2.99,8.71-7.96,16.68-14.67,23.38Zm-92.99,38.39c-29.54,0-54.27-20.93-60.06-48.7-.01-.05-.03-.1-.04-.16-.35-1.71-.59-3.45-.8-5.21-.03-.3-.1-.59-.13-.89-.21-2.04-.31-4.1-.31-6.2,0-1.93,.11-3.82,.29-5.7,.05-.59,.14-1.16,.21-1.74,.16-1.31,.36-2.61,.6-3.89,.12-.63,.25-1.26,.38-1.88,.29-1.29,.62-2.56,.99-3.81,.15-.52,.29-1.05,.45-1.57,.56-1.74,1.18-3.45,1.88-5.11,.07-.18,.17-.34,.24-.52,.65-1.49,1.35-2.94,2.11-4.37,.27-.51,.57-1.01,.85-1.51,.62-1.09,1.27-2.16,1.96-3.21,.34-.51,.68-1.02,1.03-1.53,.75-1.08,1.54-2.12,2.36-3.14,.31-.39,.6-.79,.92-1.17,1.15-1.37,2.35-2.69,3.61-3.96,.22-.22,.46-.42,.69-.64,1.06-1.03,2.15-2.03,3.29-2.98,.45-.38,.92-.74,1.38-1.11,.97-.77,1.96-1.51,2.98-2.22,.5-.35,1-.7,1.51-1.04,1.13-.74,2.29-1.44,3.47-2.1,.4-.23,.79-.47,1.19-.69,1.59-.85,3.21-1.63,4.88-2.35,.37-.16,.76-.29,1.14-.44,.98-.39,1.98-.74,2.98-1.09-.06,.11-.11,.23-.17,.35-.29,.54-.53,1.09-.8,1.64-.8,1.59-1.56,3.19-2.24,4.82-.32,.76-.6,1.52-.9,2.28-.56,1.47-1.09,2.96-1.56,4.45-.25,.79-.5,1.59-.72,2.39-.45,1.58-.82,3.18-1.17,4.78-.15,.69-.32,1.38-.45,2.08-.43,2.29-.78,4.6-1,6.92,0,.1,0,.19-.02,.29-.21,2.22-.3,4.44-.32,6.67,0,.74,.03,1.47,.05,2.2,.03,1.61,.1,3.21,.23,4.81,.07,.83,.15,1.66,.25,2.49,.18,1.55,.4,3.09,.67,4.63,.14,.79,.26,1.58,.43,2.37,.36,1.76,.8,3.51,1.28,5.25,.14,.52,.26,1.05,.41,1.57,.67,2.24,1.45,4.45,2.33,6.64,.21,.53,.47,1.05,.7,1.58,.7,1.65,1.45,3.27,2.27,4.88,.38,.74,.79,1.46,1.19,2.19,.77,1.39,1.57,2.76,2.43,4.1,.47,.74,.94,1.47,1.44,2.2,.94,1.37,1.94,2.72,2.98,4.04,.48,.61,.93,1.24,1.43,1.84,1.57,1.89,3.22,3.74,4.99,5.51,2.15,2.15,4.43,4.11,6.78,5.97,.71,.56,1.44,1.07,2.16,1.6,1.71,1.27,3.46,2.47,5.26,3.59,.84,.52,1.68,1.03,2.54,1.52,1.88,1.07,3.81,2.05,5.76,2.96,.74,.35,1.47,.72,2.22,1.05,2.72,1.16,5.49,2.2,8.33,3.05,.04,.01,.08,.03,.13,.05-8.29,4.04-17.45,6.18-26.95,6.18Zm-92.98-38.39c-20.93-20.86-23.54-53.17-7.85-76.9,0,0,0,0,0,0,1-1.51,2.1-2.97,3.24-4.4,.15-.19,.27-.39,.43-.57,1.3-1.59,2.69-3.13,4.18-4.61,1.33-1.32,2.72-2.56,4.14-3.74,.49-.41,1-.79,1.51-1.18,.93-.73,1.88-1.44,2.85-2.11,.66-.45,1.32-.89,1.99-1.31,.83-.53,1.68-1.03,2.54-1.52,.77-.44,1.54-.88,2.32-1.28,.75-.39,1.52-.73,2.29-1.08,1.87-.86,3.76-1.63,5.69-2.29,.44-.15,.88-.33,1.33-.47,1.05-.33,2.11-.6,3.17-.88,.65-.17,1.31-.34,1.97-.49,1.03-.23,2.06-.43,3.1-.61,.75-.13,1.5-.23,2.25-.33,.99-.13,1.98-.27,2.97-.35,1.1-.09,2.2-.13,3.31-.16,1.39-.04,2.77-.04,4.16,.01,.9,.03,1.8,.06,2.69,.13,.99,.08,1.98,.19,2.97,.32,.75,.1,1.49,.21,2.24,.33,1.04,.17,2.08,.35,3.12,.58,.59,.13,1.18,.29,1.77,.44,2.19,.55,4.36,1.21,6.49,2,.4,.15,.81,.27,1.21,.43,.96,.38,1.9,.82,2.84,1.25,.46,.21,.91,.42,1.37,.65-.13,.04-.26,.09-.39,.14-.59,.18-1.16,.41-1.75,.6-1.68,.56-3.34,1.15-4.97,1.82-.77,.31-1.52,.66-2.28,.99-1.43,.64-2.85,1.32-4.23,2.04-.75,.39-1.49,.78-2.23,1.19-1.43,.8-2.82,1.66-4.19,2.54-.6,.39-1.22,.76-1.82,1.16-1.92,1.32-3.8,2.7-5.6,4.17-.1,.09-.2,.18-.3,.27-1.69,1.4-3.31,2.88-4.87,4.41-.54,.53-1.04,1.08-1.56,1.63-1.1,1.15-2.18,2.31-3.21,3.52-.55,.65-1.09,1.3-1.62,1.97-.96,1.21-1.89,2.44-2.78,3.7-.47,.67-.95,1.33-1.41,2.01-.99,1.49-1.91,3.02-2.79,4.57-.27,.48-.58,.95-.84,1.44-1.11,2.05-2.13,4.16-3.06,6.32-.23,.55-.42,1.11-.65,1.66-.66,1.64-1.29,3.3-1.84,5-.26,.79-.48,1.6-.72,2.4-.44,1.52-.84,3.05-1.19,4.61-.19,.85-.38,1.7-.54,2.56-.31,1.63-.55,3.29-.76,4.96-.1,.77-.22,1.53-.29,2.31-.23,2.44-.38,4.91-.38,7.41,0,3.04,.22,6.03,.55,8.99,.12,1.05,.32,2.08,.48,3.13,.29,1.87,.62,3.72,1.04,5.55,.29,1.26,.62,2.5,.97,3.74,.44,1.56,.94,3.08,1.47,4.6,.46,1.31,.91,2.62,1.44,3.91,.6,1.45,1.29,2.85,1.98,4.25,.52,1.07,.93,2.19,1.5,3.23-8.73-2.98-16.73-7.93-23.44-14.63Z"/></svg>